<mxfile host="app.diagrams.net" modified="2023-09-29T09:19:28.283Z" agent="Mozilla/5.0 (Macintosh; Intel Mac OS X 10_15_7) AppleWebKit/537.36 (KHTML, like Gecko) Chrome/116.0.0.0 Safari/537.36" etag="bYJSstXBgUxCfrxNgrTk" version="21.6.1" type="github">
  <diagram name="Page-1" id="MJYJqNV9Cqa79DNorDkY">
    <mxGraphModel dx="1194" dy="792" grid="1" gridSize="10" guides="1" tooltips="1" connect="1" arrows="1" fold="1" page="1" pageScale="1" pageWidth="827" pageHeight="1169" math="0" shadow="0">
      <root>
        <mxCell id="0" />
        <mxCell id="1" parent="0" />
        <mxCell id="TBZ7pBv7S2z65CoItZSb-22" value="" style="rounded=0;whiteSpace=wrap;html=1;dashed=1;" vertex="1" parent="1">
          <mxGeometry x="70" y="50" width="510" height="290" as="geometry" />
        </mxCell>
        <mxCell id="TBZ7pBv7S2z65CoItZSb-3" value="Transaction" style="whiteSpace=wrap;html=1;aspect=fixed;" vertex="1" parent="1">
          <mxGeometry x="80" y="200" width="80" height="80" as="geometry" />
        </mxCell>
        <mxCell id="TBZ7pBv7S2z65CoItZSb-13" style="edgeStyle=orthogonalEdgeStyle;rounded=0;orthogonalLoop=1;jettySize=auto;html=1;exitX=1;exitY=0.5;exitDx=0;exitDy=0;entryX=0;entryY=0.5;entryDx=0;entryDy=0;" edge="1" parent="1" source="TBZ7pBv7S2z65CoItZSb-4" target="TBZ7pBv7S2z65CoItZSb-8">
          <mxGeometry relative="1" as="geometry" />
        </mxCell>
        <mxCell id="TBZ7pBv7S2z65CoItZSb-14" style="edgeStyle=orthogonalEdgeStyle;rounded=0;orthogonalLoop=1;jettySize=auto;html=1;exitX=1;exitY=0.5;exitDx=0;exitDy=0;entryX=0;entryY=0.5;entryDx=0;entryDy=0;" edge="1" parent="1" source="TBZ7pBv7S2z65CoItZSb-4" target="TBZ7pBv7S2z65CoItZSb-7">
          <mxGeometry relative="1" as="geometry" />
        </mxCell>
        <mxCell id="TBZ7pBv7S2z65CoItZSb-15" value="Side Effect" style="edgeLabel;html=1;align=center;verticalAlign=middle;resizable=0;points=[];" vertex="1" connectable="0" parent="TBZ7pBv7S2z65CoItZSb-14">
          <mxGeometry x="-0.6129" relative="1" as="geometry">
            <mxPoint as="offset" />
          </mxGeometry>
        </mxCell>
        <mxCell id="TBZ7pBv7S2z65CoItZSb-4" value="Accounts" style="whiteSpace=wrap;html=1;aspect=fixed;" vertex="1" parent="1">
          <mxGeometry x="254" y="200" width="80" height="80" as="geometry" />
        </mxCell>
        <mxCell id="TBZ7pBv7S2z65CoItZSb-5" value="" style="endArrow=classic;html=1;rounded=0;entryX=0;entryY=0.5;entryDx=0;entryDy=0;exitX=1;exitY=0.5;exitDx=0;exitDy=0;" edge="1" parent="1" source="TBZ7pBv7S2z65CoItZSb-3" target="TBZ7pBv7S2z65CoItZSb-4">
          <mxGeometry width="50" height="50" relative="1" as="geometry">
            <mxPoint x="380" y="490" as="sourcePoint" />
            <mxPoint x="270" y="360" as="targetPoint" />
          </mxGeometry>
        </mxCell>
        <mxCell id="TBZ7pBv7S2z65CoItZSb-6" value="Performs&lt;br&gt;Action" style="edgeLabel;html=1;align=center;verticalAlign=middle;resizable=0;points=[];" vertex="1" connectable="0" parent="TBZ7pBv7S2z65CoItZSb-5">
          <mxGeometry x="-0.125" relative="1" as="geometry">
            <mxPoint as="offset" />
          </mxGeometry>
        </mxCell>
        <mxCell id="TBZ7pBv7S2z65CoItZSb-7" value="Accounting&lt;br&gt;Entry" style="whiteSpace=wrap;html=1;aspect=fixed;" vertex="1" parent="1">
          <mxGeometry x="470" y="170" width="60" height="60" as="geometry" />
        </mxCell>
        <mxCell id="TBZ7pBv7S2z65CoItZSb-8" value="Accounting&lt;br&gt;Entry" style="whiteSpace=wrap;html=1;aspect=fixed;" vertex="1" parent="1">
          <mxGeometry x="470" y="250" width="60" height="60" as="geometry" />
        </mxCell>
        <mxCell id="TBZ7pBv7S2z65CoItZSb-17" value="&lt;h1&gt;Basic&lt;/h1&gt;&lt;p&gt;Basic Relationship Between Transaction and Accounts&lt;/p&gt;" style="text;html=1;strokeColor=none;fillColor=none;spacing=5;spacingTop=-20;whiteSpace=wrap;overflow=hidden;rounded=0;" vertex="1" parent="1">
          <mxGeometry x="80" y="70" width="190" height="120" as="geometry" />
        </mxCell>
      </root>
    </mxGraphModel>
  </diagram>
</mxfile>
